<svg width="399" height="409" viewBox="0 0 399 409" fill="none" xmlns="http://www.w3.org/2000/svg">
<path d="M363.02 218.056C389.962 218.056 406.802 247.223 393.331 270.556L324.049 390.556C310.577 413.89 276.898 413.89 263.427 390.556L194.145 270.556C180.674 247.223 197.513 218.056 224.456 218.056H363.02ZM74.0236 223.614C87.4951 200.281 121.173 200.281 134.645 223.614L203.927 343.614C217.398 366.947 200.559 396.114 173.616 396.114H35.0519C8.10897 396.114 -8.7301 366.947 4.74133 343.614L74.0236 223.614ZM193.024 17.4998C206.495 -5.83325 240.173 -5.83329 253.645 17.4998L322.927 137.5C336.398 160.833 319.559 190 292.616 190H154.052C127.109 190 110.27 160.833 123.741 137.5L193.024 17.4998Z" fill="url(#paint0_linear_3_20)"/>
<defs>
<linearGradient id="paint0_linear_3_20" x1="386.029" y1="152.909" x2="201.447" y2="433.204" gradientUnits="userSpaceOnUse">
<stop stop-color="#00FF88"/>
<stop offset="0.985577" stop-color="#00D4FF"/>
</linearGradient>
</defs>
</svg>
